# Blender v2.76 (sub 0) OBJ File: ''
# www.blender.org
mtllib graveboxsection.mtl
o Group1
v 1.000000 0.000000 0.000000
v 1.000000 0.062500 0.062500
v 1.000000 0.000000 0.062500
v 1.000000 0.062500 0.000000
v 1.000000 0.000000 0.000000
v 0.062500 0.062500 0.000000
v 1.000000 0.062500 0.000000
v 0.062500 0.000000 0.000000
v 1.000000 0.000000 0.000000
v 0.062500 0.000000 0.062500
v 0.062500 0.000000 0.000000
v 1.000000 0.000000 0.062500
v 0.062500 0.000000 0.937500
v 1.000000 0.000000 0.937500
v 1.000000 0.062500 0.937500
v 1.000000 0.000000 0.937500
v 0.062500 0.062500 0.062500
v 1.000000 0.062500 0.937500
v 1.000000 0.062500 0.062500
v 0.062500 0.062500 0.937500
v 0.062500 0.062500 0.062500
v 0.062500 1.000000 0.937500
v 0.062500 1.000000 0.062500
v 0.062500 0.062500 0.062500
v 1.000000 1.000000 0.062500
v 0.062500 1.000000 0.062500
v 1.000000 0.062500 0.062500
v 1.000000 1.000000 0.062500
v 1.000000 1.000000 0.000000
v 0.062500 1.000000 0.000000
v 1.000000 1.000000 0.000000
v 0.000000 1.000000 0.000000
v 0.000000 1.000000 0.000000
v 0.000000 0.062500 0.000000
v 0.000000 0.000000 0.000000
v 0.000000 0.000000 0.062500
v 0.000000 0.000000 0.000000
v 0.000000 0.000000 0.937500
v 0.000000 0.000000 1.000000
v 0.000000 0.000000 1.000000
v 0.000000 0.000000 1.000000
v 0.062500 0.000000 1.000000
v 1.000000 0.000000 1.000000
v 1.000000 0.062500 1.000000
v 1.000000 0.000000 1.000000
v 1.000000 1.000000 1.000000
v 1.000000 1.000000 0.937500
v 0.062500 0.062500 0.937500
v 1.000000 1.000000 0.937500
v 1.000000 0.062500 0.937500
v 0.062500 1.000000 0.937500
v 0.062500 1.000000 0.937500
v 1.000000 1.000000 1.000000
v 1.000000 1.000000 0.937500
v 0.062500 1.000000 1.000000
v 0.000000 1.000000 0.937500
v 0.000000 1.000000 1.000000
v 0.000000 1.000000 0.937500
v 0.000000 0.062500 1.000000
v 0.000000 0.062500 1.000000
v 0.000000 1.000000 1.000000
v 0.000000 1.000000 1.000000
v 0.000000 0.062500 0.937500
v 0.000000 1.000000 0.062500
v 0.000000 0.062500 0.062500
v 0.000000 1.000000 0.000000
v 0.000000 0.062500 0.000000
v 0.000000 0.000000 0.062500
v 0.000000 0.000000 0.000000
v 0.000000 0.000000 0.937500
v 0.062500 0.062500 1.000000
v 0.062500 0.000000 1.000000
v 1.000000 0.062500 1.000000
v 1.000000 0.000000 1.000000
v 1.000000 1.000000 1.000000
v 0.062500 1.000000 1.000000
v 0.062500 1.000000 0.062500
v 0.000000 1.000000 0.062500
v 0.062500 1.000000 0.000000
v 1.000000 1.000000 0.062500
vt 0.937500 1.000000
vt 0.937500 0.062500
vt 1.000000 0.062500
vt 1.000000 1.000000
vt 0.937500 0.000000
vt 1.000000 0.000000
vt 0.062500 1.000000
vt 0.062500 0.062500
vt 0.062500 0.937500
vt 0.000000 1.000000
vt 0.000000 0.937500
vt 0.062500 0.000000
vt 1.000000 0.937500
vt 0.000000 0.062500
vt 0.000000 0.000000
vn -1.000000 0.000000 0.000000
vn 0.000000 0.000000 -1.000000
vn 0.000000 0.000000 1.000000
vn 0.000000 1.000000 0.000000
vn 1.000000 0.000000 0.000000
vn 0.000000 -1.000000 0.000000
usemtl outside
s off
f 58/1/1 63/2/1 59/3/1
f 58/1/1 59/3/1 61/4/1
f 8/5/2 35/6/2 34/3/2
f 8/5/2 34/3/2 6/2/2
f 75/4/3 76/7/3 71/8/3
f 75/4/3 71/8/3 73/3/3
f 77/9/4 79/7/4 32/10/4
f 77/9/4 32/10/4 78/11/4
f 6/2/2 34/3/2 33/4/2
f 6/2/2 33/4/2 30/1/2
f 4/3/5 29/4/5 28/1/5
f 4/3/5 28/1/5 2/2/5
f 68/12/1 70/5/1 63/2/1
f 68/12/1 63/2/1 65/8/1
f 52/4/4 55/13/4 53/9/4
f 52/4/4 53/9/4 54/7/4
f 1/6/5 4/3/5 2/2/5
f 1/6/5 2/2/5 3/5/5
f 62/10/3 60/14/3 71/8/3
f 62/10/3 71/8/3 76/7/3
f 66/10/1 67/14/1 65/8/1
f 66/10/1 65/8/1 64/7/1
f 15/8/5 47/7/5 46/10/5
f 15/8/5 46/10/5 44/14/5
f 39/6/1 59/3/1 63/2/1
f 39/6/1 63/2/1 70/5/1
f 3/5/5 2/2/5 15/8/5
f 3/5/5 15/8/5 16/12/5
f 5/15/2 8/5/2 6/2/2
f 5/15/2 6/2/2 7/14/2
f 9/6/6 12/3/6 10/8/6
f 9/6/6 10/8/6 11/12/6
f 7/14/2 6/2/2 30/1/2
f 7/14/2 30/1/2 31/10/2
f 16/12/5 15/8/5 44/14/5
f 16/12/5 44/14/5 45/15/5
f 13/9/6 42/7/6 40/10/6
f 13/9/6 40/10/6 38/11/6
f 77/13/4 80/9/4 29/7/4
f 77/13/4 29/7/4 79/4/4
f 10/8/6 13/9/6 38/11/6
f 10/8/6 38/11/6 36/14/6
f 11/12/6 10/8/6 36/14/6
f 11/12/6 36/14/6 37/15/6
f 41/15/3 72/12/3 71/8/3
f 41/15/3 71/8/3 60/14/3
f 64/7/1 65/8/1 63/2/1
f 64/7/1 63/2/1 58/1/1
f 56/14/4 57/15/4 55/12/4
f 56/14/4 55/12/4 52/8/4
f 14/13/6 43/4/6 42/7/6
f 14/13/6 42/7/6 13/9/6
f 67/14/1 69/15/1 68/12/1
f 67/14/1 68/12/1 65/8/1
f 78/9/4 56/13/4 52/4/4
f 78/9/4 52/4/4 77/7/4
f 12/3/6 14/13/6 13/9/6
f 12/3/6 13/9/6 10/8/6
f 72/12/3 74/6/3 73/3/3
f 72/12/3 73/3/3 71/8/3
usemtl inside
f 24/6/3 27/12/3 25/7/3
f 24/6/3 25/7/3 26/4/3
f 21/15/5 23/10/5 22/4/5
f 21/15/5 22/4/5 20/6/5
f 17/15/4 20/6/4 18/13/4
f 17/15/4 18/13/4 19/11/4
f 48/6/2 51/4/2 49/7/2
f 48/6/2 49/7/2 50/12/2
