# 3ds Max Wavefront OBJ Exporter v0.97b - (c)2007 guruware
# File Created: 23.03.2016 14:46:27

mtllib gravestone.mtl

v  0.3840 0.0800 0.8457
v  -0.4408 0.0800 0.8457
v  -0.4801 0.0800 0.8850
v  0.4233 0.0800 0.8850
v  -0.5284 0.0000 0.9333
v  0.4716 0.0000 0.9333
v  0.4233 0.0000 0.8850
v  -0.4801 0.0000 0.8850
v  0.4233 0.0000 -1.0184
v  -0.4801 0.0000 -1.0184
v  -0.4801 0.0800 -1.0184
v  0.4233 0.0800 -1.0184
v  0.4716 0.0000 -1.0667
v  -0.5284 0.0000 -1.0667
v  -0.5284 -1.0100 0.9333
v  0.4716 -1.0100 0.9333
v  -0.5284 -1.0100 -0.0667
v  0.4716 -1.0100 -0.0667
v  0.4233 0.0800 -0.0667
v  0.3840 0.0800 -0.0667
v  -0.4408 0.0800 -0.9791
v  -0.4801 0.0800 -0.0667
v  -0.4408 0.0800 -0.0667
v  0.4716 0.0000 -0.0667
v  0.4233 0.0000 -0.0667
v  0.4716 -1.0100 -1.0667
v  -0.5284 -1.0100 -1.0667
v  -0.4801 0.0000 -0.0667
v  -0.5284 0.0000 -0.0667
v  0.3840 0.0800 -0.9791
v  0.3840 -0.9798 0.8457
v  0.3840 -0.9798 -0.0667
v  -0.4408 -0.9798 -0.0667
v  -0.4408 -0.9798 0.8457
v  -0.4408 -0.9798 -0.9791
v  0.3840 -0.9798 -0.9791
# 36 vertices

vn 0.0000 1.0000 -0.0000
vn 0.0000 0.0000 -1.0000
vn 0.0000 0.0000 1.0000
vn 0.0000 -1.0000 -0.0000
vn 1.0000 0.0000 -0.0000
vn -1.0000 0.0000 -0.0000
# 6 vertex normals

vt 0.8750 1.0000 0.0000
vt 0.1250 1.0000 0.0000
vt 0.0625 0.9375 0.0000
vt 0.9375 0.9375 0.0000
vt 0.0000 0.8750 0.0000
vt 1.0000 0.8750 0.0000
vt 0.9375 1.0000 0.0000
vt 0.0625 1.0000 0.0000
vt 1.0000 0.9375 0.0000
vt 0.0000 0.9375 0.0000
vt 0.0000 0.0000 0.0000
vt 1.0000 0.0000 0.0000
vt 0.9375 0.0000 0.0000
vt 0.0000 1.0000 0.0000
vt 0.9793 0.9565 0.0000
vt 1.0000 1.0000 0.0000
vt 0.5000 1.0000 0.0000
vt 0.5000 0.9565 0.0000
vt 0.9375 0.8750 0.0000
vt 0.0625 0.0000 0.0000
vt 0.9517 1.0000 0.0000
vt 0.0483 1.0000 0.0000
vt 0.0483 0.9375 0.0000
vt 0.9517 0.9375 0.0000
vt 0.0625 0.8750 0.0000
vt 0.0207 0.9565 0.0000
# 26 texture coords

g default
usemtl box
s off
f 1/1/1 2/2/1 3/3/1 4/4/1 
f 5/5/1 6/6/1 7/4/1 8/3/1 
f 9/3/2 10/4/2 11/7/2 12/8/2 
f 10/4/1 9/3/1 13/5/1 14/6/1 
f 6/9/3 5/10/3 15/11/3 16/12/3 
f 15/11/4 17/13/4 18/7/4 16/14/4 
f 19/4/1 20/7/1 1/2/1 4/3/1 
f 21/15/1 11/16/1 22/17/1 23/18/1 
f 7/3/1 6/5/1 24/19/1 25/4/1 
f 26/12/5 13/9/5 24/3/5 18/20/5 
f 4/21/3 3/22/3 8/23/3 7/24/3 
f 25/4/5 19/7/5 4/8/5 7/3/5 
f 17/20/4 27/12/4 26/16/4 18/8/4 
f 26/11/2 27/12/2 14/9/2 13/10/2 
f 22/8/6 28/3/6 8/4/6 3/7/6 
f 14/10/6 27/11/6 17/13/6 29/4/6 
f 29/3/6 17/20/6 15/12/6 5/9/6 
f 29/4/1 28/19/1 10/25/1 14/10/1 
f 21/1/1 30/2/1 12/3/1 11/4/1 
f 18/13/5 24/4/5 6/10/5 16/11/5 
f 30/1/1 20/8/1 19/3/1 12/4/1 
f 2/26/1 23/18/1 22/17/1 3/14/1 
f 11/8/6 10/3/6 28/4/6 22/7/6 
f 9/4/5 12/7/5 19/8/5 25/3/5 
f 29/25/1 5/6/1 8/4/1 28/3/1 
f 24/25/1 13/6/1 9/4/1 25/3/1 
usemtl box
f 31/11/1 32/13/1 33/7/1 34/14/1 
f 35/12/5 21/16/5 23/8/5 33/20/5 
f 20/8/6 32/20/6 31/12/6 1/16/6 
f 35/11/3 36/12/3 30/16/3 21/14/3 
f 2/16/2 1/14/2 31/11/2 34/12/2 
f 30/14/6 36/11/6 32/13/6 20/7/6 
f 32/20/1 36/12/1 35/16/1 33/8/1 
f 33/13/5 23/7/5 2/14/5 34/11/5 
# 34 polygons

#
# object default001
#

v  0.4200 0.1423 -0.0650
v  0.4700 0.0823 -0.0650
v  0.4700 0.0823 -1.0150
v  0.4200 0.1423 -1.0150
v  -0.5300 0.0823 0.8850
v  -0.5300 0.0823 -0.0650
v  0.4700 0.0823 0.8850
v  0.4700 0.0823 -1.0650
v  0.4200 0.0823 -1.0650
v  -0.4800 0.1423 -0.0650
v  -0.4800 0.1423 0.8850
v  0.4200 0.1423 0.8850
v  -0.4800 0.1423 -1.0150
v  -0.5300 0.0823 -1.0650
v  -0.5300 0.0823 -1.0150
v  -0.4800 0.0823 -1.0650
v  -0.4800 0.0823 0.9350
v  0.4200 0.0823 0.9350
v  0.4700 0.0823 0.9350
v  -0.5300 0.0823 0.9350
# 20 vertices

vn 0.7682 0.6402 -0.0000
vn 0.0000 -1.0000 -0.0000
vn 0.0000 0.6402 -0.7682
vn 0.0000 1.0000 -0.0000
vn -0.7682 0.6402 -0.0000
vn 0.0000 0.6402 0.7682
# 6 vertex normals

vt 0.0625 0.0625 0.0000
vt 0.0625 0.0000 0.0000
vt 1.0000 0.0000 0.0000
vt 1.0000 0.0625 0.0000
vt 0.9375 1.0000 0.0000
vt 0.0625 1.0000 0.0000
vt 0.9375 0.0000 0.0000
vt 0.9375 0.0625 0.0000
vt -0.0000 1.0000 0.0000
vt 0.0000 -0.0000 0.0000
vt 0.0000 0.9375 0.0000
vt 0.9375 0.9375 0.0000
vt 1.0000 1.0000 0.0000
vt 1.0000 0.9375 0.0000
vt 0.0000 0.0625 0.0000
vt 0.0625 0.9375 0.0000
# 16 texture coords

g default001
usemtl box
s off
f 37/27/7 38/28/7 39/29/7 40/30/7 
f 41/31/8 42/32/8 38/28/8 43/33/8 
f 40/34/9 44/29/9 45/30/9 
f 40/34/7 39/33/7 44/29/7 
f 46/31/10 47/35/10 48/36/10 37/33/10 
f 41/37/11 47/35/11 46/31/11 42/38/11 
f 49/38/11 50/39/11 51/31/11 
f 50/39/9 49/38/9 52/40/9 
f 38/33/7 37/34/7 48/41/7 43/36/7 
f 47/35/12 53/32/12 54/28/12 48/36/12 
f 48/27/7 55/36/7 43/28/7 
f 48/27/12 54/41/12 55/36/12 
f 51/32/8 50/35/8 44/36/8 39/28/8 
f 49/39/11 51/40/11 42/42/11 46/32/11 
f 42/31/8 51/32/8 39/28/8 38/33/8 
f 47/42/11 41/35/11 56/32/11 
f 56/35/12 53/37/12 47/42/12 
f 49/39/10 46/32/10 37/28/10 40/29/10 
f 45/29/9 52/39/9 49/31/9 40/33/9 
f 41/41/8 43/30/8 55/29/8 56/36/8 
# 12 polygons - 8 triangles

