# Blender v2.76 (sub 0) OBJ File: ''
# www.blender.org
mtllib gravelidsectionfoot.mtl
o Group1.001
v 0.000000 0.062500 0.025000
v 0.000000 0.062500 0.025000
v 0.000000 0.000000 0.000000
v 0.000000 0.000000 0.025000
v 0.000000 0.000000 0.025000
v 0.000000 0.062500 0.025000
v 0.950000 0.000000 0.000000
v 0.000000 0.000000 0.000000
v 0.950000 0.062500 0.025000
v 0.000000 0.062500 0.025000
v 0.950000 0.062500 0.975000
v 0.950000 0.062500 0.025000
v 0.000000 0.062500 0.975000
v 0.000000 0.000000 0.975000
v 0.000000 0.000000 0.975000
v 0.000000 0.062500 0.975000
v 0.000000 0.062500 0.975000
v 0.000000 0.000000 0.025000
v 0.950000 0.000000 0.975000
v 0.000000 0.000000 0.975000
v 0.950000 0.000000 0.025000
v 0.950000 0.000000 0.000000
v 0.000000 0.000000 0.000000
v 1.000000 0.000000 0.000000
v 0.950000 0.000000 0.000000
v 1.000000 0.000000 0.025000
v 0.950000 0.062500 0.025000
v 0.950000 0.062500 0.025000
v 1.000000 0.000000 0.025000
v 1.000000 0.000000 0.000000
v 1.000000 0.000000 0.975000
v 1.000000 0.000000 0.025000
v 0.950000 0.062500 0.975000
v 0.950000 0.062500 0.975000
v 1.000000 0.000000 1.000000
v 1.000000 0.000000 0.975000
v 0.950000 0.000000 1.000000
v 1.000000 0.000000 0.975000
v 1.000000 0.000000 1.000000
v 0.000000 0.000000 1.000000
v 0.000000 0.000000 1.000000
v 0.000000 0.000000 1.000000
v 0.950000 0.062500 0.975000
v 0.950000 0.062500 0.975000
v 0.000000 0.062500 0.975000
v 0.950000 0.000000 1.000000
v 0.950000 0.000000 1.000000
v 1.000000 0.000000 1.000000
v 1.000000 0.000000 0.025000
v 1.000000 0.000000 0.975000
v 1.000000 0.000000 0.000000
v 0.950000 0.000000 0.000000
vt 0.062500 0.062500
vt 0.062500 1.000000
vt 0.000000 1.000000
vt 0.000000 0.062500
vt 0.937500 1.000000
vt 0.937500 0.000000
vt 1.000000 0.000000
vt 1.000000 1.000000
vt 0.000000 0.000000
vt 0.937500 0.937500
vt 1.000000 0.062500
vt 0.062500 0.937500
vt 1.000000 0.937500
vt 0.000000 0.937500
vt 0.937500 0.062500
vt 0.062500 0.000000
vn 0.000000 0.371400 0.928500
vn -0.000000 -1.000000 -0.000000
vn 0.780900 0.624700 0.000000
vn 0.000000 1.000000 0.000000
vn -0.000000 0.371400 -0.928500
vn -1.000000 0.000000 0.000000
usemtl tex
s off
f 42/1/1 46/2/1 43/3/1
f 42/1/1 43/3/1 45/4/1
f 18/3/2 22/5/2 21/5/2
f 37/6/2 19/6/2 38/7/2
f 37/6/2 38/7/2 39/7/2
f 19/6/2 21/5/2 49/8/2
f 19/6/2 49/8/2 50/7/2
f 18/3/2 21/5/2 19/6/2
f 18/3/2 19/6/2 20/9/2
f 40/9/2 20/9/2 19/6/2
f 40/9/2 19/6/2 37/6/2
f 27/10/3 29/5/3 30/8/3
f 10/11/4 13/4/4 11/3/4
f 10/11/4 11/3/4 12/8/4
f 35/3/3 36/2/3 33/12/3
f 28/13/3 34/14/3 31/3/3
f 28/13/3 31/3/3 32/8/3
f 6/15/5 9/5/5 7/8/5
f 6/15/5 7/8/5 8/11/5
f 44/12/1 47/14/1 48/3/1
f 9/10/5 51/8/5 52/13/5
f 24/8/2 26/8/2 21/5/2
f 24/8/2 21/5/2 25/5/2
usemtl tex
f 1/1/6 3/9/6 4/16/6
f 18/3/2 23/3/2 22/5/2
f 41/3/6 16/12/6 14/2/6
f 2/16/6 5/9/6 15/3/6
f 2/16/6 15/3/6 17/2/6
