# Blender v2.76 (sub 0) OBJ File: 'grave.blend'
# www.blender.org
mtllib gravestone.mtl
o box
v 1.000000 0.000000 1.000000
v 0.951723 0.000000 0.951723
v 0.000000 0.000000 1.000000
v 1.000000 0.000000 -1.000000
v 1.000000 -1.010000 1.000000
v 1.000000 0.000000 -1.000000
v 1.000000 0.000000 1.000000
v 1.000000 -1.010000 -1.000000
v 0.000000 -1.010000 -1.000000
v 1.000000 -1.010000 -1.000000
v 0.000000 -1.010000 1.000000
v 0.000000 0.000000 1.000000
v 0.000000 -1.010000 1.000000
v 0.000000 0.000000 1.000000
v 0.000000 -1.010000 -1.000000
v 0.000000 -1.010000 1.000000
v 0.000000 0.000000 -1.000000
v 0.048277 0.000000 0.951723
v 0.000000 0.000000 -1.000000
v 0.951723 0.000000 0.951723
v 0.048277 0.080000 0.951723
v 0.048277 0.000000 0.951723
v 0.951723 0.080000 0.951723
v 0.951723 0.000000 0.951723
v 0.951723 0.080000 -0.951723
v 0.951723 0.080000 0.951723
v 0.951723 0.000000 -0.951723
v 0.951723 0.000000 -0.951723
v 0.048277 0.000000 -0.951723
v 0.048277 0.080000 0.951723
v 0.048277 0.000000 -0.951723
v 0.048277 0.000000 0.951723
v 0.048277 0.080000 -0.951723
v 0.048277 0.080000 0.951723
v 0.087595 0.080000 0.912405
v 0.048277 0.080000 -0.951723
v 0.912405 0.080000 0.912405
v 0.951723 0.080000 0.951723
v 0.951723 0.080000 -0.951723
v 0.912405 0.080000 -0.912405
v 0.087595 0.080000 -0.912405
v 0.087595 -0.979815 0.912405
v 0.087595 0.080000 -0.912405
v 0.087595 0.080000 0.912405
v 0.087595 -0.979815 -0.912405
v 0.087595 -0.979815 0.912405
v 0.912405 -0.979815 -0.912405
v 0.087595 -0.979815 -0.912405
v 0.912405 -0.979815 0.912405
v 0.087595 -0.979815 0.912405
v 0.912405 0.080000 0.912405
v 0.912405 -0.979815 0.912405
v 0.087595 0.080000 0.912405
v 0.912405 0.080000 0.912405
v 0.912405 -0.979815 -0.912405
v 0.912405 -0.979815 0.912405
v 0.912405 0.080000 -0.912405
v 0.087595 0.080000 -0.912405
v 0.912405 -0.979815 -0.912405
v 0.912405 0.080000 -0.912405
v 0.087595 -0.979815 -0.912405
v 0.951723 0.080000 -0.951723
v 0.048277 0.000000 -0.951723
v 0.048277 0.080000 -0.951723
v 0.951723 0.000000 -0.951723
v 1.000000 0.000000 -1.000000
v 0.000000 -1.010000 -1.000000
v 0.000000 0.000000 -1.000000
v 1.000000 -1.010000 -1.000000
v 0.000000 -1.010000 -0.000000
v 0.000000 0.000000 -0.000000
v 0.000000 -1.010000 -0.000000
v 1.000000 -1.010000 0.000000
v 1.000000 0.000000 0.000000
v 1.000000 -1.010000 0.000000
v 0.912405 0.080000 0.000000
v 0.048277 0.080000 0.000000
v 0.912405 -0.979815 0.000000
v 0.912405 0.080000 0.000000
v 0.951723 0.080000 0.000000
v 0.048277 0.000000 -0.000000
v 0.951723 0.000000 0.000000
v 0.048277 0.080000 0.000000
v 0.087595 0.080000 -0.000000
v 0.087595 -0.979815 -0.000000
v 0.951723 0.080000 0.000000
v 0.087595 0.080000 -0.000000
v 0.087595 -0.979815 -0.000000
v 0.912405 -0.979815 0.000000
vt 0.937500 0.937500
vt 0.875000 1.000000
vt 0.125000 1.000000
vt 0.062500 0.937500
vt 0.000000 0.875000
vt 1.000000 0.875000
vt 0.062500 1.000000
vt 0.937500 1.000000
vt 1.000000 0.000000
vt 1.000000 0.937500
vt 0.000000 0.937500
vt 0.000000 0.000000
vt 0.000000 1.000000
vt 0.937500 0.000000
vt 0.500000 0.956480
vt 0.979344 0.956480
vt 1.000000 1.000000
vt 0.500000 1.000000
vt 0.937500 0.875000
vt 0.062500 0.000000
vt 0.951723 0.937482
vt 0.951723 1.000000
vt 0.048277 1.000000
vt 0.048277 0.937482
vt 0.062500 0.875000
vt 0.020656 0.956480
vn 0.000000 1.000000 0.000000
vn 0.000000 0.000000 -1.000000
vn -0.000000 0.000000 1.000000
vn 0.000000 -1.000000 0.000000
vn 1.000000 0.000000 0.000000
vn -1.000000 0.000000 -0.000000
usemtl box
s off
f 38/1/1 37/2/1 35/3/1 34/4/1
f 18/4/1 3/5/1 1/6/1 2/1/1
f 62/7/2 65/4/2 63/1/2 64/8/2
f 19/6/1 29/1/1 28/4/1 4/5/1
f 5/9/3 7/10/3 12/11/3 13/12/3
f 5/13/4 11/12/4 72/14/4 73/8/4
f 80/1/1 76/8/1 37/3/1 38/4/1
f 87/15/1 41/16/1 36/17/1 77/18/1
f 24/4/1 7/5/1 74/19/1 82/1/1
f 75/20/5 8/9/5 6/10/5 74/4/5
f 20/21/3 23/22/3 21/23/3 22/24/3
f 24/4/5 82/1/5 86/8/5 26/7/5
f 73/7/4 72/20/4 9/9/4 10/17/4
f 66/11/2 69/12/2 67/9/2 68/10/2
f 30/8/6 83/7/6 81/4/6 32/1/6
f 71/1/6 17/11/6 15/12/6 70/14/6
f 14/10/6 71/4/6 70/20/6 16/9/6
f 71/1/1 81/19/1 63/25/1 68/11/1
f 36/1/1 41/2/1 40/3/1 39/4/1
f 5/12/5 75/14/5 74/1/5 7/11/5
f 39/1/1 40/2/1 76/7/1 80/4/1
f 35/26/1 87/15/1 77/18/1 34/13/1
f 83/8/6 33/7/6 31/4/6 81/1/6
f 82/4/5 27/1/5 25/8/5 86/7/5
f 81/4/1 71/25/1 14/6/1 32/1/1
f 82/4/1 74/25/1 66/6/1 65/1/1
usemtl inside
f 46/13/1 49/12/1 89/14/1 88/8/1
f 85/20/5 45/9/5 43/17/5 84/7/5
f 54/17/6 79/7/6 78/20/6 56/9/6
f 58/13/3 61/12/3 59/9/3 60/17/3
f 50/9/2 53/17/2 51/13/2 52/12/2
f 79/8/6 57/13/6 55/12/6 78/14/6
f 88/7/1 89/20/1 47/9/1 48/17/1
f 42/12/5 85/14/5 84/8/5 44/13/5
